<?xml version="1.0" encoding="UTF-8"?>
<svg id="Capa_1" data-name="Capa 1" xmlns="http://www.w3.org/2000/svg" viewBox="0 0 728.73 236.74">
  <defs>
    <style>
      .cls-1 {
        fill: #ff8585;
      }

      .cls-1, .cls-2, .cls-3 {
        stroke-width: 0px;
      }

      .cls-2 {
        fill: #fff;
      }

      .cls-3 {
        fill: #ff2625;
      }
    </style>
  </defs>
  <rect class="cls-2" x="387.48" y="118.37" width="341.24" height="118.37"/>
  <path class="cls-2" d="M607.36,3v112.37H3V3h604.36M610.36,0H0v118.37h610.36V0h0Z"/>
  <rect class="cls-1" x="610.36" width="118.37" height="118.37" transform="translate(1339.08 118.37) rotate(180)"/>
  <g id="_5Kx7mK.tif" data-name="5Kx7mK.tif">
    <g>
      <path class="cls-2" d="M650.25,91.25c-1.1-.35-2.27-.56-3.28-1.09-3.38-1.76-5.21-4.62-5.25-8.43-.07-8.01-.05-16.01,0-24.02.01-2.92,1.41-5.09,4-6.45,6.69-3.5,13.43-6.93,20.08-10.52,1.72-.92,3.08-.93,4.8,0,6.56,3.54,13.2,6.94,19.82,10.37,2.89,1.5,4.29,3.83,4.28,7.08-.02,7.71,0,15.41,0,23.12,0,5.14-3.27,8.99-8.34,9.85-.07.01-.14.06-.21.1h-35.89ZM668.18,86.43c5.5,0,11,0,16.49,0,3.17,0,5.19-2.01,5.19-5.18,0-7.7-.01-15.41.01-23.11,0-1.29-.5-2.15-1.65-2.74-6.51-3.37-13.01-6.76-19.51-10.16-.38-.2-.66-.21-1.04,0-6.51,3.41-13.03,6.81-19.56,10.19-1.13.58-1.62,1.44-1.61,2.7.02,7.7,0,15.41.01,23.11,0,3.18,2.01,5.2,5.18,5.2,5.5,0,11,0,16.49,0Z"/>
      <path class="cls-2" d="M637.36,45.49c.3-.94.96-1.5,1.83-1.94,8.5-4.33,16.99-8.68,25.47-13.04,2.33-1.2,4.65-1.23,6.98-.04,8.64,4.42,17.27,8.84,25.9,13.27,1.18.6,1.7,1.68,1.4,2.82-.3,1.13-1.31,1.91-2.45,1.8-.44-.04-.9-.22-1.3-.42-8.44-4.31-16.89-8.62-25.31-12.98-1.19-.62-2.21-.61-3.4,0-8.37,4.33-16.77,8.58-25.13,12.92-1.7.88-3.38.44-4-1.44v-.96Z"/>
    </g>
  </g>
  <g>
    <path class="cls-2" d="M76.97,87.46c-9.98,0-17.92-2.78-23.82-8.34-5.9-5.56-8.85-13.05-8.85-22.46s2.92-17.5,8.76-23.06c5.84-5.56,13.1-8.34,21.78-8.34,5.05,0,9.74,1.04,14.08,3.11,4.34,2.07,7.96,5.01,10.85,8.81l-10.97,8.42c-3.86-4.65-8.51-6.98-13.95-6.98-4.2,0-7.84,1.56-10.93,4.68-3.09,3.12-4.64,7.54-4.64,13.27s1.6,9.91,4.81,12.89c3.2,2.98,7.44,4.47,12.72,4.47,3.74,0,6.84-.57,9.27-1.7v-6.3h-9.87v-12h23.99v27.82c-7.2,3.8-14.95,5.7-23.23,5.7Z"/>
    <path class="cls-2" d="M138.32,42.88l1.79,11.74h-1.28c-6.01,0-10.78,2.21-14.29,6.64v25.27h-13.02v-43.22h13.02v7.06c2.55-4.99,6.66-7.49,12.34-7.49h1.45Z"/>
    <path class="cls-2" d="M175.15,43.22h13.19v43.31h-13.19v-4.93c-3.57,3.86-8.05,5.79-13.44,5.79s-9.45-1.59-12.17-4.76c-2.72-3.18-4.08-7.71-4.08-13.61v-25.78h13.19v23.91c0,5.62,2.5,8.42,7.49,8.42,3.52,0,6.52-1.59,9.02-4.76v-27.57Z"/>
    <path class="cls-2" d="M225.78,42.45c5.9,0,10.68,2.03,14.34,6.08,3.66,4.06,5.49,9.49,5.49,16.29s-2.01,11.97-6.04,16.17c-4.03,4.2-9.27,6.3-15.74,6.3-4.54,0-8.45-1.13-11.74-3.4v20.5h-13.19v-61.09h13.19v5.36c1.3-1.93,3.16-3.45,5.57-4.55s5.12-1.66,8.12-1.66ZM221.52,75.46c3.18,0,5.7-.95,7.57-2.85,1.87-1.9,2.81-4.49,2.81-7.78s-.91-5.79-2.72-7.66c-1.82-1.87-4.25-2.81-7.32-2.81-4.03,0-7.35,1.9-9.95,5.7v13.1c2.61,1.53,5.81,2.3,9.61,2.3Z"/>
    <path class="cls-2" d="M292.01,81.03c-4.45,4.23-10.2,6.34-17.23,6.34s-12.78-2.11-17.23-6.34c-4.45-4.22-6.68-9.6-6.68-16.12s2.23-11.9,6.68-16.12c4.45-4.22,10.19-6.34,17.23-6.34s12.78,2.11,17.23,6.34c4.45,4.23,6.68,9.6,6.68,16.12s-2.23,11.9-6.68,16.12ZM267.34,72.48c1.9,1.93,4.38,2.89,7.45,2.89s5.54-.98,7.44-2.94c1.9-1.96,2.85-4.49,2.85-7.61s-.95-5.56-2.85-7.49c-1.9-1.93-4.35-2.89-7.36-2.89s-5.56.97-7.49,2.89c-1.93,1.93-2.89,4.45-2.89,7.57s.95,5.64,2.85,7.57Z"/>
    <path class="cls-2" d="M354.5,87.37c-9.93,0-17.9-2.84-23.91-8.51-6.01-5.67-9.02-13.44-9.02-23.31,0-9.36,2.86-16.75,8.59-22.16,5.73-5.42,12.9-8.13,21.52-8.13,10.55,0,18.41,3.83,23.57,11.49l-10.63,8.34c-3.12-4.31-7.43-6.47-12.93-6.47-4.54,0-8.2,1.6-10.97,4.81-2.78,3.2-4.17,7.25-4.17,12.12,0,5.44,1.7,9.88,5.11,13.32,3.4,3.43,8.05,5.15,13.95,5.15,4.94,0,9.81-1.36,14.63-4.08l5.36,11.74c-6.01,3.8-13.05,5.7-21.1,5.7Z"/>
    <path class="cls-2" d="M425.29,69c0,3.4,1.39,5.67,4.17,6.81l-5.61,11.49c-4.82-.85-8.25-3.37-10.29-7.57-1.48,2.44-3.53,4.33-6.17,5.66-2.64,1.33-5.6,2-8.89,2-5.79,0-10.59-1.98-14.42-5.96-3.83-3.97-5.74-9.36-5.74-16.17s2.13-12.31,6.38-16.51c4.25-4.2,9.64-6.3,16.17-6.3,4.82,0,8.9,1.19,12.25,3.57l.43-2.72h11.74v25.69ZM401.72,75.38c3.06,0,5.57-1.09,7.53-3.28,1.96-2.18,2.91-4.95,2.85-8.29v-7.23c-3.06-1.53-6.13-2.3-9.19-2.3-3.4,0-6.08,1.01-8.04,3.02-1.96,2.01-2.94,4.67-2.94,7.95,0,3.06.92,5.52,2.77,7.36,1.84,1.84,4.18,2.77,7.02,2.77Z"/>
    <path class="cls-2" d="M450.64,87.37c-6.64,0-12.56-1.47-17.78-4.42l4.42-9.61c3.91,2.55,8.31,3.83,13.19,3.83,3.69,0,5.53-.99,5.53-2.98,0-.96-.6-1.76-1.79-2.38-1.19-.62-3.43-1.39-6.72-2.3-4.14-1.13-7.33-2.72-9.57-4.76-2.24-2.04-3.36-4.85-3.36-8.42,0-4.25,1.54-7.64,4.64-10.17,3.09-2.52,7.16-3.79,12.21-3.79,3.74,0,7.02.67,9.83,2,2.81,1.33,4.95,3.02,6.42,5.06l-8.17,6.47c-.8-1.13-1.96-2.08-3.49-2.85-1.53-.77-3.06-1.15-4.6-1.15-2.67,0-4,.94-4,2.81,0,.97.69,1.8,2.09,2.51,1.39.71,3.76,1.55,7.1,2.51,4.14,1.25,7.22,2.88,9.23,4.89,2.01,2.01,3.02,4.81,3.02,8.38,0,4.48-1.57,8-4.72,10.55-3.15,2.55-7.64,3.83-13.49,3.83Z"/>
    <path class="cls-2" d="M521.26,69c0,3.4,1.39,5.67,4.17,6.81l-5.61,11.49c-4.82-.85-8.25-3.37-10.29-7.57-1.48,2.44-3.53,4.33-6.17,5.66-2.64,1.33-5.6,2-8.89,2-5.79,0-10.59-1.98-14.42-5.96-3.83-3.97-5.74-9.36-5.74-16.17s2.13-12.31,6.38-16.51c4.25-4.2,9.64-6.3,16.17-6.3,4.82,0,8.9,1.19,12.25,3.57l.43-2.72h11.74v25.69ZM497.69,75.38c3.06,0,5.57-1.09,7.53-3.28,1.96-2.18,2.91-4.95,2.85-8.29v-7.23c-3.06-1.53-6.13-2.3-9.19-2.3-3.4,0-6.08,1.01-8.04,3.02-1.96,2.01-2.94,4.67-2.94,7.95,0,3.06.92,5.52,2.77,7.36,1.84,1.84,4.18,2.77,7.02,2.77Z"/>
    <path class="cls-2" d="M546.61,87.37c-6.64,0-12.56-1.47-17.78-4.42l4.42-9.61c3.91,2.55,8.31,3.83,13.19,3.83,3.69,0,5.53-.99,5.53-2.98,0-.96-.6-1.76-1.79-2.38-1.19-.62-3.43-1.39-6.72-2.3-4.14-1.13-7.33-2.72-9.57-4.76-2.24-2.04-3.36-4.85-3.36-8.42,0-4.25,1.54-7.64,4.64-10.17,3.09-2.52,7.16-3.79,12.21-3.79,3.74,0,7.02.67,9.83,2,2.81,1.33,4.95,3.02,6.42,5.06l-8.17,6.47c-.8-1.13-1.96-2.08-3.49-2.85-1.53-.77-3.06-1.15-4.6-1.15-2.67,0-4,.94-4,2.81,0,.97.69,1.8,2.09,2.51,1.39.71,3.76,1.55,7.1,2.51,4.14,1.25,7.22,2.88,9.23,4.89,2.01,2.01,3.02,4.81,3.02,8.38,0,4.48-1.57,8-4.72,10.55-3.15,2.55-7.64,3.83-13.49,3.83Z"/>
  </g>
  <g>
    <path class="cls-3" d="M494.7,200.33l-3.66,11.91c-3.52-.23-6.65-.89-9.4-2-2.75-1.11-5.66-2.82-8.72-5.15-5.28,4.99-11.88,7.49-19.82,7.49-6.52,0-11.71-1.64-15.57-4.93-3.86-3.29-5.79-7.71-5.79-13.27,0-6.69,3.83-12.22,11.49-16.59-2.89-3.86-4.34-7.88-4.34-12.08s1.62-7.94,4.85-10.89c3.23-2.95,7.6-4.42,13.1-4.42,7.37,0,13.5,2.67,18.38,8l-9.27,7.66c-1.47-1.64-2.84-2.81-4.08-3.49-1.25-.68-2.67-1.02-4.25-1.02s-2.88.44-3.87,1.32c-.99.88-1.49,2-1.49,3.36,0,1.25.37,2.45,1.11,3.62.74,1.16,2.16,2.68,4.25,4.55l12.85,11.66c1.25-3.91,2.04-8.2,2.38-12.85h18.38v11.49h-7.91c-.85,3.74-1.9,7.03-3.15,9.87,4.82,3.46,9.67,5.39,14.55,5.79ZM446.03,193.78c0,1.99.72,3.6,2.17,4.85,1.45,1.25,3.42,1.87,5.91,1.87,3.57,0,6.75-1.16,9.53-3.49l-12.85-11.49c-3.18,2.33-4.77,5.08-4.77,8.25Z"/>
    <path class="cls-3" d="M516.9,211.73l3.06-60.41h19.65l12.59,29.44,13.27-29.44h19.14l2.98,60.41h-13.95l-2.3-44.84-13.02,31.22h-13.1l-12.68-31.22-2.3,44.84h-13.36Z"/>
    <path class="cls-3" d="M642.31,194.2c0,3.4,1.39,5.67,4.17,6.81l-5.61,11.49c-4.82-.85-8.25-3.37-10.29-7.57-1.48,2.44-3.53,4.33-6.17,5.66-2.64,1.33-5.6,2-8.89,2-5.79,0-10.59-1.98-14.42-5.96-3.83-3.97-5.74-9.36-5.74-16.17s2.13-12.31,6.38-16.51c4.25-4.2,9.64-6.3,16.17-6.3,4.82,0,8.9,1.19,12.25,3.57l.43-2.72h11.74v25.69ZM618.74,200.58c3.06,0,5.57-1.09,7.53-3.28,1.96-2.18,2.91-4.95,2.85-8.29v-7.23c-3.06-1.53-6.13-2.3-9.19-2.3-3.4,0-6.08,1.01-8.04,3.02-1.96,2.01-2.94,4.67-2.94,7.95,0,3.06.92,5.52,2.77,7.36,1.84,1.84,4.18,2.77,7.02,2.77ZM612.36,162.55l10.29-14.38h12.17l-11.66,14.38h-10.81Z"/>
    <path class="cls-3" d="M667.66,212.58c-6.64,0-12.56-1.47-17.78-4.42l4.42-9.61c3.91,2.55,8.31,3.83,13.19,3.83,3.69,0,5.53-.99,5.53-2.98,0-.96-.6-1.76-1.79-2.38-1.19-.62-3.43-1.39-6.72-2.3-4.14-1.13-7.33-2.72-9.57-4.76-2.24-2.04-3.36-4.85-3.36-8.42,0-4.25,1.54-7.64,4.64-10.17,3.09-2.52,7.16-3.79,12.21-3.79,3.74,0,7.02.67,9.83,2,2.81,1.33,4.95,3.02,6.42,5.06l-8.17,6.47c-.8-1.13-1.96-2.08-3.49-2.85-1.53-.77-3.06-1.15-4.6-1.15-2.67,0-4,.94-4,2.81,0,.97.69,1.8,2.09,2.51,1.39.71,3.76,1.55,7.1,2.51,4.14,1.25,7.22,2.88,9.23,4.89,2.01,2.01,3.02,4.81,3.02,8.38,0,4.48-1.57,8-4.72,10.55-3.15,2.55-7.64,3.83-13.49,3.83Z"/>
  </g>
</svg>